<mxfile host="app.diagrams.net" modified="2021-05-08T11:54:37.170Z" agent="5.0 (Macintosh; Intel Mac OS X 10_15_5) AppleWebKit/537.36 (KHTML, like Gecko) Chrome/90.0.4430.93 Safari/537.36" etag="G4NFmlDfIkdYlCRpyh-4" version="14.6.9" type="github">
  <diagram id="6doVrPJ-ObZSOuQhxs8i" name="Page-1">
    <mxGraphModel dx="2168" dy="700" grid="1" gridSize="10" guides="1" tooltips="1" connect="1" arrows="1" fold="1" page="1" pageScale="1" pageWidth="1169" pageHeight="827" math="0" shadow="0">
      <root>
        <mxCell id="0" />
        <mxCell id="1" parent="0" />
        <mxCell id="rIAOia4sCqqXoOOWir5a-1" value="&lt;b&gt;&lt;font style=&quot;font-size: 17px&quot;&gt;écrire&lt;/font&gt;&lt;/b&gt;" style="whiteSpace=wrap;html=1;aspect=fixed;fillColor=#7EA6E0;" parent="1" vertex="1">
          <mxGeometry x="-70" y="190" width="140" height="140" as="geometry" />
        </mxCell>
        <mxCell id="rIAOia4sCqqXoOOWir5a-2" value="&lt;b&gt;&lt;font style=&quot;font-size: 17px&quot;&gt;coder&lt;/font&gt;&lt;/b&gt;" style="whiteSpace=wrap;html=1;aspect=fixed;fillColor=#7EA6E0;" parent="1" vertex="1">
          <mxGeometry x="1100" y="200" width="140" height="140" as="geometry" />
        </mxCell>
        <mxCell id="rIAOia4sCqqXoOOWir5a-4" value="représenter1" style="rounded=0;whiteSpace=wrap;html=1;fillColor=#ffe6cc;strokeColor=#d79b00;" parent="1" vertex="1">
          <mxGeometry x="230" y="100" width="120" height="60" as="geometry" />
        </mxCell>
        <mxCell id="rIAOia4sCqqXoOOWir5a-5" value="tracer3" style="rounded=0;whiteSpace=wrap;html=1;fillColor=#dae8fc;strokeColor=#6c8ebf;" parent="1" vertex="1">
          <mxGeometry x="240" y="450" width="120" height="60" as="geometry" />
        </mxCell>
        <mxCell id="rIAOia4sCqqXoOOWir5a-6" value="signe3" style="rounded=0;whiteSpace=wrap;html=1;fillColor=#e1d5e7;strokeColor=#9673a6;" parent="1" vertex="1">
          <mxGeometry x="500" y="520" width="120" height="60" as="geometry" />
        </mxCell>
        <mxCell id="rIAOia4sCqqXoOOWir5a-7" value="langue2" style="rounded=0;whiteSpace=wrap;html=1;fillColor=#f8cecc;strokeColor=#b85450;" parent="1" vertex="1">
          <mxGeometry x="840" y="530" width="120" height="60" as="geometry" />
        </mxCell>
        <mxCell id="rIAOia4sCqqXoOOWir5a-8" value="langue1" style="rounded=0;whiteSpace=wrap;html=1;fillColor=#f8cecc;strokeColor=#b85450;" parent="1" vertex="1">
          <mxGeometry x="240" y="580" width="120" height="60" as="geometry" />
        </mxCell>
        <mxCell id="rIAOia4sCqqXoOOWir5a-9" value="tracer1" style="rounded=0;whiteSpace=wrap;html=1;fillColor=#dae8fc;strokeColor=#6c8ebf;" parent="1" vertex="1">
          <mxGeometry x="230" y="180" width="120" height="60" as="geometry" />
        </mxCell>
        <mxCell id="rIAOia4sCqqXoOOWir5a-10" value="signe1" style="rounded=0;whiteSpace=wrap;html=1;fillColor=#e1d5e7;strokeColor=#9673a6;" parent="1" vertex="1">
          <mxGeometry x="490" y="250" width="120" height="60" as="geometry" />
        </mxCell>
        <mxCell id="rIAOia4sCqqXoOOWir5a-11" value="représenter2" style="rounded=0;whiteSpace=wrap;html=1;fillColor=#ffe6cc;strokeColor=#d79b00;" parent="1" vertex="1">
          <mxGeometry x="490" y="130" width="120" height="60" as="geometry" />
        </mxCell>
        <mxCell id="rIAOia4sCqqXoOOWir5a-12" value="langue3" style="rounded=0;whiteSpace=wrap;html=1;fillColor=#f8cecc;strokeColor=#b85450;" parent="1" vertex="1">
          <mxGeometry x="670" y="210" width="120" height="60" as="geometry" />
        </mxCell>
        <mxCell id="rIAOia4sCqqXoOOWir5a-13" value="représenter3" style="rounded=0;whiteSpace=wrap;html=1;fillColor=#ffe6cc;strokeColor=#d79b00;" parent="1" vertex="1">
          <mxGeometry x="860" y="70" width="120" height="60" as="geometry" />
        </mxCell>
        <mxCell id="rIAOia4sCqqXoOOWir5a-14" value="indice" style="rounded=0;whiteSpace=wrap;html=1;fillColor=#B5F8FF;" parent="1" vertex="1">
          <mxGeometry x="230" y="320" width="120" height="60" as="geometry" />
        </mxCell>
        <mxCell id="rIAOia4sCqqXoOOWir5a-15" value="signe2" style="rounded=0;whiteSpace=wrap;html=1;fillColor=#e1d5e7;strokeColor=#9673a6;" parent="1" vertex="1">
          <mxGeometry x="680" y="430" width="120" height="60" as="geometry" />
        </mxCell>
        <mxCell id="tSA0cVDieB6mVvmB_cu0-1" value="" style="endArrow=none;html=1;exitX=1;exitY=0.75;exitDx=0;exitDy=0;entryX=0;entryY=0.25;entryDx=0;entryDy=0;" parent="1" source="rIAOia4sCqqXoOOWir5a-9" target="rIAOia4sCqqXoOOWir5a-10" edge="1">
          <mxGeometry width="50" height="50" relative="1" as="geometry">
            <mxPoint x="340" y="200" as="sourcePoint" />
            <mxPoint x="390" y="150" as="targetPoint" />
          </mxGeometry>
        </mxCell>
        <mxCell id="tSA0cVDieB6mVvmB_cu0-2" value="" style="endArrow=none;html=1;exitX=0;exitY=0.5;exitDx=0;exitDy=0;entryX=1;entryY=0.5;entryDx=0;entryDy=0;" parent="1" source="rIAOia4sCqqXoOOWir5a-9" target="rIAOia4sCqqXoOOWir5a-1" edge="1">
          <mxGeometry width="50" height="50" relative="1" as="geometry">
            <mxPoint x="310" y="300" as="sourcePoint" />
            <mxPoint x="360" y="250" as="targetPoint" />
          </mxGeometry>
        </mxCell>
        <mxCell id="tSA0cVDieB6mVvmB_cu0-3" value="" style="endArrow=none;html=1;entryX=1;entryY=0.75;entryDx=0;entryDy=0;" parent="1" source="rIAOia4sCqqXoOOWir5a-3" target="rIAOia4sCqqXoOOWir5a-1" edge="1">
          <mxGeometry width="50" height="50" relative="1" as="geometry">
            <mxPoint x="325" y="150" as="sourcePoint" />
            <mxPoint x="375" y="180" as="targetPoint" />
          </mxGeometry>
        </mxCell>
        <mxCell id="tSA0cVDieB6mVvmB_cu0-4" value="" style="endArrow=none;html=1;exitX=0.25;exitY=0;exitDx=0;exitDy=0;entryX=1;entryY=0.75;entryDx=0;entryDy=0;strokeColor=#FF3333;" parent="1" source="rIAOia4sCqqXoOOWir5a-7" target="rIAOia4sCqqXoOOWir5a-15" edge="1">
          <mxGeometry width="50" height="50" relative="1" as="geometry">
            <mxPoint x="560" y="260" as="sourcePoint" />
            <mxPoint x="610" y="210" as="targetPoint" />
          </mxGeometry>
        </mxCell>
        <mxCell id="tSA0cVDieB6mVvmB_cu0-5" value="" style="endArrow=none;html=1;exitX=1.014;exitY=0.122;exitDx=0;exitDy=0;entryX=0;entryY=0.5;entryDx=0;entryDy=0;exitPerimeter=0;" parent="1" source="rIAOia4sCqqXoOOWir5a-1" target="rIAOia4sCqqXoOOWir5a-4" edge="1">
          <mxGeometry width="50" height="50" relative="1" as="geometry">
            <mxPoint x="430" y="130" as="sourcePoint" />
            <mxPoint x="480" y="80" as="targetPoint" />
          </mxGeometry>
        </mxCell>
        <mxCell id="tSA0cVDieB6mVvmB_cu0-6" value="" style="endArrow=none;html=1;" parent="1" source="rIAOia4sCqqXoOOWir5a-8" target="rIAOia4sCqqXoOOWir5a-1" edge="1">
          <mxGeometry width="50" height="50" relative="1" as="geometry">
            <mxPoint x="390" y="450" as="sourcePoint" />
            <mxPoint x="420" y="290" as="targetPoint" />
          </mxGeometry>
        </mxCell>
        <mxCell id="tSA0cVDieB6mVvmB_cu0-7" value="" style="endArrow=none;html=1;exitX=0.5;exitY=1;exitDx=0;exitDy=0;entryX=0.589;entryY=-0.011;entryDx=0;entryDy=0;entryPerimeter=0;" parent="1" source="rIAOia4sCqqXoOOWir5a-14" target="rIAOia4sCqqXoOOWir5a-5" edge="1">
          <mxGeometry width="50" height="50" relative="1" as="geometry">
            <mxPoint x="180" y="330" as="sourcePoint" />
            <mxPoint x="290" y="440" as="targetPoint" />
          </mxGeometry>
        </mxCell>
        <mxCell id="tSA0cVDieB6mVvmB_cu0-8" value="" style="endArrow=none;html=1;strokeColor=#FF3333;entryX=0.25;entryY=1;entryDx=0;entryDy=0;" parent="1" source="rIAOia4sCqqXoOOWir5a-7" target="rIAOia4sCqqXoOOWir5a-2" edge="1">
          <mxGeometry width="50" height="50" relative="1" as="geometry">
            <mxPoint x="720" y="420" as="sourcePoint" />
            <mxPoint x="1060" y="270" as="targetPoint" />
          </mxGeometry>
        </mxCell>
        <mxCell id="tSA0cVDieB6mVvmB_cu0-9" value="" style="endArrow=none;html=1;strokeColor=#FF3333;entryX=0.75;entryY=1;entryDx=0;entryDy=0;" parent="1" target="rIAOia4sCqqXoOOWir5a-14" edge="1">
          <mxGeometry width="50" height="50" relative="1" as="geometry">
            <mxPoint x="500" y="519" as="sourcePoint" />
            <mxPoint x="500" y="350" as="targetPoint" />
          </mxGeometry>
        </mxCell>
        <mxCell id="tSA0cVDieB6mVvmB_cu0-10" value="action" style="rounded=0;whiteSpace=wrap;html=1;fillColor=#d5e8d4;strokeColor=#82b366;" parent="1" vertex="1">
          <mxGeometry x="680" y="330" width="120" height="60" as="geometry" />
        </mxCell>
        <mxCell id="tSA0cVDieB6mVvmB_cu0-11" value="" style="endArrow=none;html=1;entryX=0;entryY=1;entryDx=0;entryDy=0;exitX=0.842;exitY=0.017;exitDx=0;exitDy=0;exitPerimeter=0;" parent="1" source="rIAOia4sCqqXoOOWir5a-8" target="rIAOia4sCqqXoOOWir5a-10" edge="1">
          <mxGeometry width="50" height="50" relative="1" as="geometry">
            <mxPoint x="390" y="450" as="sourcePoint" />
            <mxPoint x="480" y="290" as="targetPoint" />
          </mxGeometry>
        </mxCell>
        <mxCell id="tSA0cVDieB6mVvmB_cu0-12" value="" style="endArrow=none;html=1;strokeColor=#000000;exitX=0;exitY=0.25;exitDx=0;exitDy=0;entryX=0.75;entryY=1;entryDx=0;entryDy=0;" parent="1" source="tSA0cVDieB6mVvmB_cu0-10" target="rIAOia4sCqqXoOOWir5a-10" edge="1">
          <mxGeometry width="50" height="50" relative="1" as="geometry">
            <mxPoint x="620" y="230" as="sourcePoint" />
            <mxPoint x="650" y="200" as="targetPoint" />
          </mxGeometry>
        </mxCell>
        <mxCell id="tSA0cVDieB6mVvmB_cu0-13" value="" style="endArrow=none;html=1;exitX=1;exitY=0.5;exitDx=0;exitDy=0;entryX=0;entryY=1;entryDx=0;entryDy=0;strokeColor=#FF3333;" parent="1" source="tSA0cVDieB6mVvmB_cu0-10" target="rIAOia4sCqqXoOOWir5a-2" edge="1">
          <mxGeometry width="50" height="50" relative="1" as="geometry">
            <mxPoint x="670" y="290" as="sourcePoint" />
            <mxPoint x="720" y="240" as="targetPoint" />
          </mxGeometry>
        </mxCell>
        <mxCell id="tSA0cVDieB6mVvmB_cu0-14" value="langage1" style="rounded=0;whiteSpace=wrap;html=1;fillColor=#fff2cc;strokeColor=#d6b656;" parent="1" vertex="1">
          <mxGeometry x="660" y="60" width="120" height="60" as="geometry" />
        </mxCell>
        <mxCell id="tSA0cVDieB6mVvmB_cu0-15" value="&lt;font style=&quot;font-size: 17px&quot;&gt;(refaire avec Twine?)&lt;/font&gt;" style="text;html=1;align=center;verticalAlign=middle;resizable=0;points=[];autosize=1;strokeColor=none;" parent="1" vertex="1">
          <mxGeometry x="-225" y="630" width="170" height="20" as="geometry" />
        </mxCell>
        <mxCell id="dXt1x4Jq84xT1-GMIPiX-1" value="&lt;span id=&quot;docs-internal-guid-dce81f62-7fff-224b-d48a-537479456130&quot;&gt;&lt;span style=&quot;font-family: &amp;#34;calibri&amp;#34; , sans-serif ; background-color: transparent ; vertical-align: baseline&quot;&gt;&lt;font style=&quot;font-size: 12px&quot;&gt;réflexivité&lt;/font&gt;&lt;/span&gt;&lt;/span&gt;" style="rounded=0;whiteSpace=wrap;html=1;fillColor=#bac8d3;strokeColor=#23445d;" vertex="1" parent="1">
          <mxGeometry x="500" y="390" width="120" height="60" as="geometry" />
        </mxCell>
        <mxCell id="dXt1x4Jq84xT1-GMIPiX-2" value="" style="endArrow=none;html=1;strokeColor=#000000;exitX=1;exitY=0.5;exitDx=0;exitDy=0;entryX=0;entryY=0.75;entryDx=0;entryDy=0;" edge="1" parent="1" source="rIAOia4sCqqXoOOWir5a-8" target="dXt1x4Jq84xT1-GMIPiX-1">
          <mxGeometry width="50" height="50" relative="1" as="geometry">
            <mxPoint x="450" y="460" as="sourcePoint" />
            <mxPoint x="500" y="410" as="targetPoint" />
          </mxGeometry>
        </mxCell>
        <mxCell id="dXt1x4Jq84xT1-GMIPiX-3" value="" style="endArrow=none;html=1;entryX=0;entryY=0.25;entryDx=0;entryDy=0;exitX=1;exitY=0.75;exitDx=0;exitDy=0;strokeColor=#FF3333;" edge="1" parent="1" source="dXt1x4Jq84xT1-GMIPiX-1" target="rIAOia4sCqqXoOOWir5a-15">
          <mxGeometry width="50" height="50" relative="1" as="geometry">
            <mxPoint x="580" y="510" as="sourcePoint" />
            <mxPoint x="630" y="460" as="targetPoint" />
          </mxGeometry>
        </mxCell>
        <mxCell id="rIAOia4sCqqXoOOWir5a-3" value="tracer2" style="rounded=0;whiteSpace=wrap;html=1;fillColor=#dae8fc;strokeColor=#6c8ebf;" parent="1" vertex="1">
          <mxGeometry x="230" y="280" width="120" height="60" as="geometry" />
        </mxCell>
        <mxCell id="dXt1x4Jq84xT1-GMIPiX-7" value="" style="endArrow=none;html=1;exitX=0.25;exitY=0;exitDx=0;exitDy=0;" edge="1" parent="1" source="rIAOia4sCqqXoOOWir5a-5" target="rIAOia4sCqqXoOOWir5a-1">
          <mxGeometry width="50" height="50" relative="1" as="geometry">
            <mxPoint x="265" y="447" as="sourcePoint" />
            <mxPoint x="540" y="310" as="targetPoint" />
          </mxGeometry>
        </mxCell>
        <mxCell id="dXt1x4Jq84xT1-GMIPiX-8" value="règles" style="rounded=0;whiteSpace=wrap;html=1;gradientColor=#b3b3b3;fillColor=#f5f5f5;strokeColor=#666666;" vertex="1" parent="1">
          <mxGeometry x="500" y="620" width="120" height="60" as="geometry" />
        </mxCell>
        <mxCell id="dXt1x4Jq84xT1-GMIPiX-9" value="" style="endArrow=none;html=1;exitX=1;exitY=0.75;exitDx=0;exitDy=0;" edge="1" parent="1" source="rIAOia4sCqqXoOOWir5a-8" target="dXt1x4Jq84xT1-GMIPiX-8">
          <mxGeometry width="50" height="50" relative="1" as="geometry">
            <mxPoint x="440" y="660" as="sourcePoint" />
            <mxPoint x="490" y="610" as="targetPoint" />
          </mxGeometry>
        </mxCell>
        <mxCell id="dXt1x4Jq84xT1-GMIPiX-10" value="" style="endArrow=none;html=1;strokeColor=#FF3333;entryX=0;entryY=0.648;entryDx=0;entryDy=0;entryPerimeter=0;exitX=1;exitY=0.5;exitDx=0;exitDy=0;" edge="1" parent="1" source="dXt1x4Jq84xT1-GMIPiX-8" target="rIAOia4sCqqXoOOWir5a-2">
          <mxGeometry width="50" height="50" relative="1" as="geometry">
            <mxPoint x="640" y="660" as="sourcePoint" />
            <mxPoint x="690" y="610" as="targetPoint" />
          </mxGeometry>
        </mxCell>
        <mxCell id="dXt1x4Jq84xT1-GMIPiX-12" value="&lt;font color=&quot;#ff3333&quot; style=&quot;font-size: 16px&quot;&gt;NB les lignes rouges sont les liens encore à créer (et textes à écrire)&lt;/font&gt;" style="text;html=1;align=center;verticalAlign=middle;resizable=0;points=[];autosize=1;strokeColor=none;" vertex="1" parent="1">
          <mxGeometry x="-440" y="450" width="500" height="20" as="geometry" />
        </mxCell>
      </root>
    </mxGraphModel>
  </diagram>
</mxfile>
